<?xml version="1.0" encoding="utf-8"?>
<!-- Generator: Adobe Illustrator 28.1.0, SVG Export Plug-In . SVG Version: 6.00 Build 0)  -->
<svg version="1.1" id="Layer_1" xmlns="http://www.w3.org/2000/svg" xmlns:xlink="http://www.w3.org/1999/xlink" x="0px" y="0px"
	 viewBox="0 0 1920 1080" style="enable-background:new 0 0 1920 1080;" xml:space="preserve">
<style type="text/css">
	.st0{fill:#FFFFFF;stroke:#000000;stroke-width:6;stroke-miterlimit:10;}
</style>
<g>
	<path class="st0" d="M570.74,394.21v-47.7h77.1c0.4,0,0.6-0.2,0.6-0.6v-11.4h-46.5c-20.8,0-31.2-7.9-31.2-23.7V167.1
		c0-16.2,10.4-24.3,31.2-24.3h108.9v227.7c0,15.8-10.4,23.7-31.2,23.7H570.74z M648.44,190.8h-14.7c-0.4,0-0.6,0.2-0.6,0.6v94.8
		c0,0.4,0.2,0.6,0.6,0.6h14.7V190.8z"/>
	<path class="st0" d="M835.34,394.21c-20.8,0-31.2-7.9-31.2-23.7V258.3c0-0.4-0.2-0.6-0.6-0.6h-14.7v76.8h-62.4V142.8h108.9
		c20.6,0,30.9,8.1,30.9,24.3v55.8c0,9.2-5.1,14.4-15.3,15.6c10.4,1.4,15.6,6.7,15.6,15.9v91.5c0,0.4,0.2,0.6,0.6,0.6h154.2v47.7
		H835.34z M804.14,191.4c0-0.4-0.2-0.6-0.6-0.6h-14.7v28.8h14.7c0.4,0,0.6-0.2,0.6-0.6V191.4z M912.44,334.5
		c-20.8,0-31.2-7.9-31.2-23.7v-72.3c0-15.8,10.4-23.7,31.2-23.7h46.5v-23.4c0-0.4-0.2-0.6-0.6-0.6h-14.1c-0.4,0-0.6,0.2-0.6,0.6
		v11.1h-62.4v-35.4c0-16.2,10.4-24.3,31.2-24.3h77.7c20.8,0,31.2,8.1,31.2,24.3v167.4H912.44z M958.94,256.8h-14.7
		c-0.4,0-0.6,0.2-0.6,0.6v28.8c0,0.4,0.2,0.6,0.6,0.6h14.7V256.8z"/>
	<path class="st0" d="M1145.84,394.21c-21,0-31.5-7.9-31.5-23.7V191.4c0-0.4-0.2-0.6-0.6-0.6h-14.1c-0.4,0-0.6,0.2-0.6,0.6v143.1
		h-62.4V142.8h62.4v12.3c10.6-8.2,26.1-12.3,46.5-12.3c20.8,0,31.2,8.1,31.2,24.3v178.8c0,0.4,0.2,0.6,0.6,0.6h154.2v47.7H1145.84z
		 M1222.64,334.5c-10.8,0-18.7-1.95-23.7-5.85c-5-3.9-7.5-9.85-7.5-17.85V167.1c0-16.2,10.4-24.3,31.2-24.3h46.5v-48h62.4v239.7
		H1222.64z M1269.14,190.8h-14.7c-0.4,0-0.6,0.2-0.6,0.6v94.8c0,0.4,0.2,0.6,0.6,0.6h14.7V190.8z"/>
	<path class="st0" d="M682.04,638.5c-20.8,0-31.2-7.9-31.2-23.7V506.5h-15.3v-47.4h15.3v-12.3h62.4v12.3h77.7v47.4h-77.7v83.7
		c0,0.4,0.2,0.6,0.6,0.6h14.4c0.4,0,0.6-0.2,0.6-0.6v-71.4h62.1v96c0,15.8-10.4,23.7-31.2,23.7H682.04z"/>
	<path class="st0" d="M918.74,698.21c-21,0-31.5-7.9-31.5-23.7V495.4c0-0.4-0.2-0.6-0.6-0.6h-14.7v143.7h-62.4V398.8h62.4v48h46.5
		c20.8,0,31.2,8.1,31.2,24.3v178.8c0,0.4,0.2,0.6,0.6,0.6h154.2v47.7H918.74z M995.54,638.5c-20.8,0-31.2-7.9-31.2-23.7V471.1
		c0-16.2,10.4-24.3,31.2-24.3h77.7c20.8,0,31.2,8.1,31.2,24.3v95.7h-77.7v23.4c0,0.4,0.2,0.6,0.6,0.6h14.1c0.4,0,0.6-0.2,0.6-0.6
		v-11.4h62.4v36c0,15.8-10.4,23.7-31.2,23.7H995.54z M1042.04,495.4c0-0.4-0.2-0.6-0.6-0.6h-14.1c-0.4,0-0.6,0.2-0.6,0.6v26.7h15.3
		V495.4z"/>
	<path class="st0" d="M1122.44,638.5V471.1c0-16.2,10.4-24.3,31.2-24.3h85.8v48h-54c-0.4,0-0.6,0.2-0.6,0.6v11.1h54v48h-54v84
		H1122.44z"/>
	<path class="st0" d="M1295.53,638.5c-20.8,0-31.2-7.9-31.2-23.7V506.5h-15.3v-47.4h15.3v-12.3h62.4v12.3h77.7v47.4h-77.7v83.7
		c0,0.4,0.2,0.6,0.6,0.6h14.4c0.4,0,0.6-0.2,0.6-0.6v-71.4h62.1v96c0,15.8-10.4,23.7-31.2,23.7H1295.53z"/>
	<path class="st0" d="M601.94,891.5c-20.8,0-31.2-7.9-31.2-23.7v-72.3c0-15.8,10.4-23.7,31.2-23.7h46.5v-23.4c0-0.4-0.2-0.6-0.6-0.6
		h-14.1c-0.4,0-0.6,0.2-0.6,0.6v11.1h-62.4v-35.4c0-16.2,10.4-24.3,31.2-24.3h77.7c20.8,0,31.2,8.1,31.2,24.3v167.4H601.94z
		 M648.44,813.8h-14.7c-0.4,0-0.6,0.2-0.6,0.6v28.8c0,0.4,0.2,0.6,0.6,0.6h14.7V813.8z"/>
	<path class="st0" d="M757.04,891.5c-20.8,0-31.2-7.9-31.2-23.7v-168h62.4v143.4c0,0.4,0.2,0.6,0.6,0.6h14.1c0.4,0,0.6-0.2,0.6-0.6
		V699.8h62.4v168c0,15.8-10.4,23.7-31.2,23.7H757.04z"/>
	<path class="st0" d="M921.74,891.5c-20.8,0-31.2-7.9-31.2-23.7V759.5h-15.3v-47.4h15.3v-12.3h62.4v12.3h77.7v47.4h-77.7v83.7
		c0,0.4,0.2,0.6,0.6,0.6h14.4c0.4,0,0.6-0.2,0.6-0.6v-71.4h62.1v96c0,15.8-10.4,23.7-31.2,23.7H921.74z"/>
	<path class="st0" d="M1076.54,891.5c-20.8,0-31.2-7.9-31.2-23.7v-143.7c0-16.2,10.4-24.3,31.2-24.3h77.7c20.8,0,31.2,8.1,31.2,24.3
		v143.7c0,15.8-10.4,23.7-31.2,23.7H1076.54z M1123.04,748.4c0-0.4-0.2-0.6-0.6-0.6h-14.1c-0.4,0-0.6,0.2-0.6,0.6v94.8
		c0,0.4,0.2,0.6,0.6,0.6h14.1c0.4,0,0.6-0.2,0.6-0.6V748.4z"/>
</g>
</svg>
